<?xml version="1.0" standalone="no"?>
<!DOCTYPE svg PUBLIC "-//W3C//DTD SVG 20010904//EN"
 "http://www.w3.org/TR/2001/REC-SVG-20010904/DTD/svg10.dtd">
<svg version="1.0" xmlns="http://www.w3.org/2000/svg"
 width="478.000000pt" height="522.000000pt" viewBox="0 0 478.000000 522.000000"
 preserveAspectRatio="xMidYMid meet">

<g transform="translate(0.000000,522.000000) scale(0.100000,-0.100000)"
fill="#000000" stroke="none">
<path d="M2692 4620 c14 -4 41 -4 60 0 28 7 24 8 -27 8 -46 0 -54 -2 -33 -8z"/>
<path d="M1266 4421 c-4 -6 -16 -11 -27 -11 -11 0 -19 -7 -19 -17 0 -12 3 -14
11 -6 19 19 55 3 69 -33 8 -19 16 -34 19 -34 3 0 16 -15 27 -33 12 -17 41 -61
64 -96 l42 -65 -29 -20 c-39 -29 -96 -80 -261 -236 -79 -74 -171 -161 -205
-192 -34 -32 -57 -57 -51 -58 7 0 45 34 85 76 120 124 455 424 474 424 9 0
195 129 195 135 0 3 -11 30 -25 61 -14 31 -25 69 -25 85 0 25 -4 29 -26 29
-25 0 -26 -2 -20 -36 6 -31 5 -35 -11 -32 -12 2 -19 14 -21 36 -4 36 -13 40
-37 16 -14 -14 -23 -15 -78 -4 -98 20 -144 23 -151 11z"/>
<path d="M1934 4405 c-4 -8 -11 -15 -16 -15 -6 0 -19 -11 -30 -25 -11 -14 -26
-25 -34 -25 -9 0 -30 -11 -48 -25 -18 -14 -41 -25 -51 -25 -11 0 -15 -5 -12
-14 4 -9 -33 -43 -107 -100 -152 -115 -334 -276 -485 -429 -113 -115 -127
-126 -165 -130 l-41 -4 41 -1 c34 -2 48 4 74 28 46 43 59 48 101 43 33 -5 42
-1 79 33 23 22 46 39 51 38 5 -1 18 -2 29 -2 28 -3 26 -32 -3 -32 -14 0 -39
-16 -62 -40 -21 -22 -48 -40 -58 -40 -16 0 -17 -3 -7 -15 19 -23 37 -18 66 20
33 43 67 54 94 30 20 -18 20 -17 20 53 0 39 4 82 10 96 9 24 14 26 69 26 84 0
155 -17 235 -55 38 -19 64 -29 57 -22 -29 29 -12 36 78 34 57 -1 87 1 83 8 -3
5 -23 36 -44 68 -21 32 -38 63 -38 69 0 6 -7 18 -16 27 -8 9 -30 40 -49 68
l-34 53 26 20 c14 11 32 20 39 20 8 0 14 5 14 12 0 6 3 9 6 5 3 -3 16 3 28 15
23 22 77 60 145 102 l43 28 -3 -46 c-3 -35 -1 -45 11 -44 8 1 46 0 84 0 l69
-2 -7 -30 c-3 -17 -15 -95 -26 -173 -11 -78 -22 -154 -24 -168 l-5 -26 102 -6
c56 -3 103 -5 104 -4 2 2 42 252 59 366 l6 44 93 -6 93 -5 9 81 c8 78 4 96
-20 97 -4 0 -11 -9 -15 -21 -8 -21 -9 -21 -41 7 -31 26 -38 27 -158 30 -115 3
-127 1 -142 -17 -17 -21 -30 -23 -100 -13 l-44 6 7 -28 8 -29 -29 25 c-15 13
-38 36 -50 49 -22 25 -23 25 -38 6 -16 -20 -16 -20 -12 3 6 25 -10 31 -19 7z
m-335 -490 c27 -39 28 -45 12 -45 -10 0 -24 7 -31 15 -8 10 -22 12 -43 8 -30
-6 -31 -5 -17 12 28 36 44 55 47 55 1 0 15 -20 32 -45z"/>
<path d="M2991 4356 c-21 -23 -32 -26 -78 -24 -29 2 -53 6 -53 11 0 4 -4 7 -9
7 -6 0 -7 -24 -4 -55 4 -36 2 -55 -5 -55 -15 0 -22 14 -30 62 -8 48 -35 67
-31 22 4 -51 0 -61 -28 -67 -75 -16 -167 -144 -165 -230 0 -27 8 -60 16 -73
19 -28 20 -38 4 -28 -7 4 -8 3 -4 -5 4 -6 12 -9 17 -6 5 4 10 1 10 -4 1 -6 3
-15 4 -21 1 -5 3 -14 4 -20 1 -13 51 -13 51 -1 0 6 30 9 66 8 58 -2 68 -5 90
-30 13 -15 29 -45 35 -67 12 -39 29 -54 29 -25 0 12 15 15 78 15 42 1 105 7
139 14 62 13 154 55 160 73 2 5 -22 31 -52 57 l-56 48 -52 -23 c-40 -17 -71
-22 -137 -22 -89 0 -120 10 -152 47 -24 29 -24 112 1 149 58 88 224 127 328
76 50 -24 50 -24 196 48 70 35 119 53 134 50 31 -6 31 21 -1 33 -13 5 -27 14
-31 19 -12 20 -45 13 -45 -9 0 -12 -10 -25 -24 -31 -21 -10 -30 -7 -61 16 -20
16 -41 37 -46 47 -9 16 -17 18 -67 12 -71 -9 -138 -8 -177 1 -24 5 -35 2 -54
-19z"/>
<path d="M2730 3864 c-85 -28 -171 -102 -272 -234 -69 -91 -128 -181 -128
-196 1 -5 12 5 27 21 l26 30 -18 -30 c-10 -16 -25 -39 -32 -50 -14 -19 -15
-19 -8 5 l6 25 -21 -25 c-21 -25 40 96 88 175 24 38 24 39 3 20 -31 -27 -118
-174 -146 -246 -13 -32 -29 -84 -35 -114 -6 -30 -16 -57 -21 -60 -5 -4 -24 5
-42 19 -28 21 -39 42 -61 114 -27 87 -103 234 -156 302 -16 19 -43 44 -61 54
l-33 20 37 -46 c20 -25 37 -48 37 -52 0 -4 -30 19 -67 51 -131 114 -256 173
-370 173 -57 0 -66 -19 -66 -145 0 -86 4 -113 32 -195 18 -52 37 -99 42 -104
5 -6 9 -18 9 -27 0 -9 7 -22 15 -29 8 -7 15 -19 15 -27 0 -8 7 -21 15 -29 17
-17 20 -39 5 -29 -6 4 -28 31 -50 60 -37 50 -58 98 -90 203 -9 28 -16 38 -21
30 -5 -8 -31 -13 -68 -14 -71 -2 -101 -18 -126 -70 -13 -28 -16 -50 -11 -90
12 -102 74 -226 128 -255 21 -11 21 -10 -4 19 -51 61 -81 138 -85 221 -4 63
-1 81 16 108 23 37 72 66 96 57 17 -7 40 -43 28 -45 -4 -1 -18 -3 -31 -4 -39
-4 -46 -21 -50 -118 -4 -85 -2 -99 22 -151 18 -38 52 -83 99 -131 89 -90 185
-134 312 -145 57 -4 74 -9 61 -15 -12 -5 -57 -4 -108 3 -65 8 -102 19 -145 42
-59 33 -109 66 -130 86 -14 13 -41 10 -88 -11 -16 -8 -131 -49 -255 -93 -252
-90 -281 -103 -309 -138 -24 -31 -19 -46 30 -100 36 -40 41 -53 55 -144 7 -49
38 -115 78 -169 14 -19 26 -40 26 -46 0 -6 6 -20 14 -31 13 -19 20 -20 97 -12
132 13 325 64 493 132 128 52 156 60 156 47 0 -25 -20 -41 -50 -41 -31 0 -66
-33 -75 -72 -5 -18 -12 -25 -22 -21 -11 5 -12 8 -2 14 10 6 10 10 0 23 -7 8
-10 20 -6 26 3 5 2 10 -4 10 -5 0 -12 -4 -15 -9 -3 -4 -18 -11 -34 -14 -36 -7
-82 -44 -81 -65 1 -15 2 -15 6 1 6 24 23 11 23 -18 0 -13 5 -27 10 -30 6 -3
10 -15 10 -26 0 -17 11 -24 33 -20 4 0 7 -6 7 -15 0 -8 4 -13 9 -10 4 3 -6
-21 -22 -53 -29 -54 -30 -60 -17 -91 10 -25 27 -39 68 -58 74 -34 140 -28 186
17 30 29 35 30 64 20 18 -6 39 -8 48 -5 8 3 17 -1 21 -10 3 -8 12 -13 20 -10
8 3 11 1 8 -4 -3 -6 5 -10 19 -10 14 0 69 -11 123 -25 54 -14 110 -25 124 -25
18 0 29 -8 37 -26 14 -29 36 -23 26 8 -6 20 -6 20 13 1 11 -11 28 -26 39 -34
31 -22 61 -70 74 -119 14 -53 26 -70 49 -70 15 0 81 -63 81 -78 0 -4 4 -13 9
-21 14 -22 41 4 41 38 0 15 5 32 11 38 9 9 2 21 -25 49 -20 20 -36 41 -36 46
0 5 -4 7 -9 3 -6 -3 -17 10 -27 30 -17 37 -44 47 -44 18 0 -10 -16 6 -35 37
-20 30 -35 67 -35 84 0 28 1 28 18 13 10 -10 22 -17 27 -17 4 0 5 36 2 79 -4
62 -2 79 8 75 10 -4 9 5 -2 40 -9 26 -12 53 -8 63 8 17 8 17 12 1 6 -26 15
-22 47 22 16 21 33 37 37 34 4 -2 13 5 19 16 12 23 35 28 27 5 -11 -26 10 -25
28 1 12 19 19 23 25 14 9 -15 13 -8 31 53 8 27 22 54 33 59 18 10 96 6 179 -8
l32 -6 -25 21 -25 21 25 0 c32 0 94 -29 161 -74 l54 -36 -50 -1 c-54 0 -48 -6
33 -30 23 -7 42 -15 42 -20 0 -12 -53 -21 -60 -9 -4 7 -21 4 -51 -9 -24 -12
-55 -21 -69 -21 -15 0 -30 -4 -35 -8 -6 -5 -36 -14 -67 -21 -62 -13 -92 -36
-68 -51 12 -7 12 -10 -2 -15 -10 -4 -27 -23 -39 -43 -20 -34 -22 -35 -29 -17
-7 17 -13 8 -39 -48 -17 -37 -38 -95 -46 -130 -17 -71 -20 -187 -5 -187 6 0
10 6 11 13 0 6 4 3 8 -7 10 -26 28 44 37 144 7 88 21 114 101 190 117 112 121
114 159 112 28 -2 41 3 64 28 32 34 40 36 80 15 26 -14 34 -14 65 -1 26 11 35
21 35 39 0 31 9 38 31 26 11 -5 19 -21 19 -34 0 -25 28 -49 92 -77 32 -15 36
-22 44 -94 7 -52 6 -54 -17 -54 -23 -1 -23 -1 -5 -15 22 -17 22 -17 -20 -38
-18 -9 -46 -28 -63 -43 -27 -22 -31 -32 -31 -75 0 -27 5 -49 10 -49 6 0 10 9
10 20 0 34 31 86 62 104 37 22 44 16 24 -23 -20 -39 -20 -47 1 -30 15 13 16
11 9 -14 -9 -38 15 -61 54 -53 35 6 35 5 15 -34 -12 -24 -22 -30 -48 -30 -19
0 -42 -8 -53 -19 -20 -18 -21 -18 -33 1 -10 16 -21 18 -78 16 -63 -3 -68 -5
-84 -33 -27 -47 -33 -75 -16 -75 8 0 21 18 30 40 l15 40 57 0 c60 0 61 -1 41
-50 -5 -11 3 -19 24 -27 29 -11 30 -10 49 33 20 44 20 44 71 44 52 0 53 1 64
50 5 22 10 25 53 26 85 1 241 86 316 171 76 86 143 206 132 235 -3 8 -22 15
-48 16 -49 2 -137 31 -98 32 29 0 119 80 142 126 10 21 16 53 14 89 -1 42 2
58 14 65 14 7 13 10 -4 15 -11 4 -35 13 -53 21 -18 8 -40 14 -50 14 -14 0 -13
-4 6 -18 17 -13 24 -31 29 -73 7 -69 -14 -114 -88 -188 l-52 -53 -108 23
c-127 26 -142 33 -114 54 48 35 61 55 85 128 23 72 22 134 -3 152 -25 18 -21
25 16 25 24 1 6 10 -68 35 -110 38 -178 48 -115 17 28 -14 37 -26 47 -62 20
-77 16 -129 -16 -196 -16 -34 -34 -65 -40 -68 -6 -4 -9 -11 -6 -16 3 -4 -1
-10 -9 -13 -12 -5 -39 -1 -243 38 -43 8 -81 15 -85 15 -13 0 -9 28 7 44 8 8
15 20 15 26 0 7 9 23 20 37 11 14 20 35 20 47 1 11 7 32 15 46 20 35 18 57 -5
80 -11 11 -20 22 -20 24 0 7 49 15 99 18 24 1 45 8 48 15 3 7 10 10 17 7 6 -3
3 1 -6 8 -15 13 -15 15 4 27 15 10 19 19 14 41 -3 16 -1 32 4 35 15 9 12 59
-5 81 -8 10 -15 29 -15 40 0 32 -25 47 -63 40 -23 -4 -44 0 -72 14 -33 17 -42
18 -59 7 -12 -8 -25 -24 -31 -35 -5 -12 -12 -22 -15 -22 -3 0 -15 26 -26 58
-12 31 -30 78 -40 104 -17 43 -17 48 -3 60 9 7 20 26 23 42 6 25 5 28 -7 18
-8 -7 -17 -9 -20 -6 -9 9 21 64 36 64 18 1 72 50 101 94 26 39 35 86 16 86 -5
0 -10 -12 -10 -27 0 -29 -25 -64 -43 -58 -7 2 -25 6 -40 9 -15 4 -27 12 -26
19 4 29 -2 57 -11 57 -6 0 -10 -16 -8 -35 1 -25 -4 -39 -17 -49 -18 -13 -20
-13 -23 2 -4 23 -39 68 -47 60 -4 -3 1 -20 9 -37 26 -50 16 -86 -12 -41 -9 15
-23 20 -53 20 -47 0 -48 15 -3 39 17 9 29 22 26 29 -2 7 -8 10 -13 6 -12 -7
-12 -5 7 50 12 36 19 44 29 36 9 -8 14 -5 18 9 5 22 38 19 58 -5 13 -16 72
-18 100 -4 26 14 25 56 -2 71 -21 11 -80 8 -111 -5 -11 -5 -18 -2 -21 11 -4
16 -5 16 -6 1 0 -10 -5 -18 -11 -18 -12 0 -12 0 0 37 8 23 7 36 -5 59 -8 16
-18 46 -21 67 -6 32 -10 37 -35 37 -27 0 -89 -42 -89 -61 0 -19 -85 -117 -98
-113 -7 2 -11 0 -8 -5 3 -5 -3 -11 -14 -14 -20 -5 -20 -5 0 21 52 67 71 102
77 138 10 60 23 68 109 61 72 -5 93 3 57 21 -24 13 -85 22 -103 16z m-105
-147 c-37 -72 -82 -117 -117 -117 -45 0 -34 24 55 116 90 94 110 94 62 1z
m-1042 56 c15 -3 41 -22 57 -42 30 -35 30 -36 11 -51 -11 -8 -23 -27 -27 -43
-9 -38 -16 -40 -52 -9 -29 25 -82 116 -82 140 0 13 29 21 50 15 8 -2 28 -7 43
-10z m-92 -60 c13 -32 37 -71 53 -87 l28 -29 -63 6 c-34 4 -65 10 -68 13 -8 7
-6 117 2 138 11 28 23 17 48 -41z m254 -16 c6 -7 28 -25 50 -41 43 -31 75 -62
75 -71 0 -3 -6 -5 -14 -5 -12 0 -12 -6 -3 -29 9 -23 7 -34 -6 -55 -10 -14 -23
-26 -30 -26 -21 0 -151 66 -166 84 -21 25 -15 87 11 107 19 15 24 14 73 -13
29 -15 58 -35 65 -43 19 -23 32 -18 18 6 -7 11 -29 29 -48 39 -19 10 -53 34
-75 54 l-40 36 40 -15 c22 -9 45 -21 50 -28z m1005 -51 c0 -18 -43 -46 -72
-46 -20 0 -19 3 12 30 38 32 60 38 60 16z m67 -50 c-15 -19 -35 -37 -45 -40
-11 -4 -25 -18 -33 -32 -21 -40 -85 -87 -108 -79 -30 9 -35 42 -16 86 14 30
26 41 54 49 20 5 41 10 47 10 6 0 23 11 37 24 28 26 66 37 81 24 5 -4 -3 -22
-17 -42z m-1231 -12 c12 -3 27 -16 34 -30 7 -13 21 -26 30 -29 22 -7 45 -126
30 -155 -20 -38 -43 -26 -92 50 -17 25 -36 39 -70 49 -40 12 -47 19 -57 51
-20 67 -18 70 47 70 31 0 67 -3 78 -6z m994 -31 c-10 -21 -27 -55 -37 -77 -10
-21 -29 -46 -43 -55 -14 -9 -35 -27 -47 -41 -20 -21 -22 -22 -16 -5 3 11 15
32 25 47 10 14 18 31 18 37 0 6 4 11 8 11 9 0 32 59 32 83 0 19 26 36 57 37
21 0 21 0 3 -37z m-611 -57 c1 -4 17 -30 37 -57 20 -27 34 -54 32 -61 -2 -6
-12 5 -21 25 -10 19 -44 63 -77 96 -33 34 -60 66 -60 72 0 13 88 -61 89 -75z
m455 39 c-14 -19 -28 -35 -30 -35 -2 0 6 16 17 35 12 19 25 35 30 35 6 0 -2
-16 -17 -35z m72 3 c-3 -18 -17 -48 -30 -68 -24 -34 -48 -83 -61 -125 -5 -17
-9 -14 -24 20 -19 42 -18 51 14 103 13 22 26 32 37 28 11 -2 18 1 18 9 0 26
23 65 38 65 11 0 13 -8 8 -32z m-490 -153 c20 -42 21 -52 10 -69 -20 -32 -34
-30 -52 6 -9 18 -35 45 -60 60 -24 15 -49 39 -56 53 -10 22 -8 29 17 55 l29
30 44 -42 c24 -24 55 -65 68 -93z m772 93 c-26 -53 -48 -79 -59 -72 -17 10 -9
40 22 77 44 53 65 50 37 -5z m-1000 -13 c19 -7 39 -23 45 -36 7 -13 32 -37 56
-53 60 -40 81 -79 80 -146 0 -30 -3 -49 -6 -42 -8 20 -77 82 -165 147 -43 32
-78 65 -79 74 -1 21 -5 43 -14 70 -6 20 -4 20 22 10 15 -7 43 -17 61 -24z
m-253 -15 c28 -11 64 -47 65 -66 0 -20 41 -54 65 -54 14 0 30 9 37 19 9 16 16
17 31 9 32 -17 137 -99 137 -107 0 -4 -13 -20 -29 -35 l-30 -29 -38 23 c-20
12 -62 26 -93 31 -73 12 -102 18 -105 21 -6 7 -73 155 -80 176 -7 25 1 27 40
12z m1065 -20 c16 -10 15 -12 -15 -28 -18 -10 -17 -11 12 -12 17 0 34 6 37 13
3 8 14 2 30 -18 17 -20 26 -25 26 -15 0 9 -5 21 -12 28 -6 6 -8 15 -4 19 4 5
17 -3 28 -17 14 -17 18 -33 14 -55 -11 -58 59 -173 136 -221 37 -23 50 -55 28
-69 -17 -11 -119 45 -150 83 -47 56 -80 134 -80 186 0 25 -4 46 -10 46 -5 0
-10 -4 -10 -9 0 -5 -8 -7 -18 -4 -21 5 -95 -29 -130 -61 -13 -12 -35 -42 -48
-68 -13 -25 -29 -48 -36 -51 -7 -3 -3 -6 10 -6 12 -1 22 -7 22 -16 0 -8 6 -12
14 -9 23 9 75 -24 82 -51 3 -14 1 -38 -4 -55 -10 -28 0 -52 13 -30 3 5 20 -6
36 -25 32 -36 79 -55 138 -55 49 0 161 22 161 32 0 4 -7 8 -15 8 -12 0 -14 7
-9 28 9 34 9 35 39 38 21 2 26 -3 35 -34 5 -20 10 -63 10 -95 0 -40 3 -56 11
-51 8 4 10 32 7 82 -4 57 -3 70 6 56 6 -11 11 -67 11 -129 0 -124 -16 -168
-76 -220 -27 -22 -39 -26 -68 -20 -42 7 -128 47 -165 76 -33 26 -103 163 -112
220 -4 23 -16 49 -26 58 -11 9 -23 24 -27 33 -5 14 -16 9 -64 -34 -72 -63 -82
-86 -66 -152 15 -62 83 -135 146 -155 38 -12 48 -12 85 2 45 18 68 10 68 -24
0 -30 -45 -43 -104 -30 -82 19 -152 68 -194 136 -34 56 -37 66 -37 140 -1 54
-7 93 -19 120 -9 22 -18 53 -18 68 -1 19 -4 25 -12 17 -16 -16 -64 -12 -74 6
-6 11 -5 26 4 43 12 23 19 26 49 23 30 -4 35 -8 35 -29 0 -22 2 -24 15 -13 8
7 35 12 60 12 27 -1 43 3 40 8 -3 6 -15 10 -26 10 -10 0 -19 2 -19 5 0 19 37
107 58 138 28 42 101 97 127 97 11 0 15 5 12 14 -10 25 14 34 43 16z m-1174
-47 c35 -60 123 -173 135 -173 14 0 49 -43 42 -53 -3 -6 -2 -8 3 -4 5 3 48
-30 94 -74 47 -43 88 -79 92 -79 7 0 38 -53 38 -66 0 -3 -15 7 -33 23 -18 16
-48 35 -65 42 -21 9 -38 26 -47 48 -11 26 -26 39 -65 55 -27 11 -50 25 -50 30
0 29 -138 188 -163 188 -15 0 -76 82 -77 103 0 4 15 7 34 7 30 0 37 -6 62 -47z
m-56 -50 c107 -95 180 -176 180 -198 0 -11 -47 -4 -90 13 -129 50 -150 77
-149 181 0 75 0 76 17 51 9 -14 28 -35 42 -47z m1011 22 l17 -35 -47 -70 c-52
-79 -81 -92 -81 -37 0 45 29 127 44 127 7 0 18 11 24 25 15 33 24 31 43 -10z
m382 -22 l-5 -28 24 29 c40 48 51 32 52 -72 1 -51 0 -92 -2 -92 -11 0 -83 100
-95 132 -6 18 13 69 24 62 3 -2 4 -16 2 -31z m257 12 c0 -6 -16 -20 -35 -31
-27 -14 -37 -16 -47 -6 -7 7 -21 12 -32 12 -19 0 -19 1 -4 16 30 30 118 37
118 9z m-940 -8 c0 -1 14 -42 30 -91 17 -51 28 -97 24 -109 -6 -19 -7 -19 -28
5 -13 13 -25 43 -29 68 -3 25 -9 64 -13 88 -4 28 -3 42 5 42 6 0 11 -1 11 -3z
m-33 -49 c-3 -41 17 -129 34 -144 21 -19 23 -32 10 -53 -7 -11 -15 -10 -42 10
-51 35 -58 49 -59 106 0 44 4 55 26 72 31 25 32 25 31 9z m877 3 c3 -5 -1 -28
-9 -51 -8 -23 -15 -54 -15 -68 0 -48 -21 -7 -27 53 -5 43 -3 59 8 66 18 11 36
11 43 0z m-421 -18 c-3 -10 -10 -23 -14 -29 -5 -6 -9 -25 -11 -42 -2 -33 -15
-42 -24 -18 -3 8 2 29 12 48 26 51 51 78 37 41z m-828 -52 c28 -4 68 -17 91
-29 38 -19 42 -25 47 -70 3 -27 17 -70 31 -95 45 -81 16 -68 -114 49 -14 12
-41 36 -60 52 -19 16 -46 49 -59 73 -22 39 -22 42 -5 35 10 -4 42 -11 69 -15z
m302 -78 c46 -47 81 -88 79 -91 -6 -6 -66 30 -66 40 0 4 -7 8 -15 8 -8 0 -15
4 -15 8 0 8 -81 52 -113 62 -18 5 -18 7 3 33 12 15 26 27 32 27 6 0 49 -39 95
-87z m693 47 c24 -24 25 -34 4 -54 -30 -30 -74 -13 -74 29 0 44 37 58 70 25z
m-1260 -42 c71 -31 101 -41 106 -35 10 9 121 -33 140 -54 9 -10 15 -21 13 -23
-2 -2 -31 2 -64 9 -33 8 -89 19 -125 25 -69 12 -100 33 -125 84 -19 38 -19 42
3 24 9 -8 33 -21 52 -30z m573 -77 c32 -24 56 -45 54 -47 -2 -2 -16 0 -33 5
-19 5 -38 4 -56 -6 -15 -7 -31 -13 -35 -11 -5 1 -10 -7 -12 -17 -3 -16 -1 -16
24 3 35 28 56 28 82 0 31 -34 45 -66 41 -96 -2 -17 2 -26 9 -25 7 2 20 -11 28
-28 15 -29 15 -31 -10 -60 -14 -17 -25 -37 -25 -45 0 -17 -16 -19 -26 -3 -3 6
6 23 20 38 14 15 26 36 26 47 0 14 -5 11 -20 -14 -24 -39 -45 -49 -66 -31 -16
13 -51 79 -62 116 -5 16 -11 20 -21 14 -11 -7 -10 -16 7 -52 12 -24 35 -64 51
-88 33 -50 31 -64 -11 -85 -41 -21 -67 -3 -98 67 -22 49 -25 52 -41 38 -17
-14 -17 -16 1 -35 11 -12 36 -43 56 -70 30 -41 35 -53 25 -68 -17 -28 -13 -31
14 -9 22 17 31 18 58 9 18 -6 37 -15 42 -20 16 -15 -24 -38 -66 -38 -45 0
-106 46 -140 105 -12 22 -28 44 -36 48 -26 16 -15 68 22 103 19 18 35 42 35
53 0 26 34 61 58 61 38 0 42 21 12 59 -31 39 -60 109 -60 147 l0 23 48 -22
c26 -12 73 -42 105 -66z m-268 -86 c41 -21 75 -42 75 -46 0 -14 -89 -10 -145
5 -45 12 -124 48 -150 68 -5 4 -21 16 -34 26 -23 18 -21 18 78 2 76 -13 121
-27 176 -55z m1098 7 c-10 -14 -30 -29 -43 -33 l-25 -9 27 23 c15 12 32 36 39
52 10 25 13 27 17 11 2 -10 -4 -30 -15 -44z m-623 9 c0 -17 -4 -32 -9 -35 -5
-4 -7 3 -4 14 9 34 -12 22 -26 -15 -12 -35 -32 -44 -59 -26 -10 6 -7 12 13 25
14 9 30 28 35 42 6 14 17 24 30 24 15 0 20 -7 20 -29z m909 -36 c3 -16 1 -17
-11 -8 -8 7 -24 10 -36 6 -23 -6 -31 12 -9 21 24 10 52 1 56 -19z m-631 -12
c2 -15 -6 -27 -27 -39 -32 -19 -42 -54 -16 -54 9 0 15 9 15 23 0 26 40 54 60
42 7 -4 10 -22 8 -41 -3 -25 -1 -33 9 -30 12 5 43 -41 43 -65 0 -6 11 -24 25
-41 24 -29 34 -55 16 -44 -5 3 -11 -1 -15 -9 -7 -19 -55 -20 -62 -1 -3 8 -15
11 -29 8 -33 -6 -54 36 -37 74 7 14 17 22 22 19 6 -3 10 5 10 18 0 20 -4 24
-19 20 -12 -3 -17 -11 -14 -22 5 -21 -21 -45 -42 -37 -9 3 -15 18 -15 35 0 17
-6 31 -16 35 -24 9 -11 56 27 100 35 39 52 42 57 9z m752 -15 c0 -13 -4 -28
-8 -34 -9 -13 -71 -44 -89 -44 -7 0 -13 -4 -13 -10 0 -16 41 -11 89 10 55 25
55 25 46 -7 -10 -42 -22 -51 -72 -59 -31 -4 -41 -9 -32 -15 8 -5 33 -6 57 -3
27 4 42 2 42 -5 0 -15 -34 -31 -69 -31 -36 0 -40 -13 -8 -28 19 -9 15 -11 -29
-11 -40 -1 -55 4 -70 20 l-19 21 33 -7 c35 -7 46 9 12 20 -18 6 -21 10 -20 33
1 4 11 6 23 4 21 -3 22 -2 3 13 -11 8 -23 15 -28 15 -4 0 -8 7 -8 15 0 9 9 15
21 15 18 0 19 3 9 15 -19 23 -1 55 43 76 58 26 87 25 87 -3z m-161 3 c22 -14
4 -33 -20 -21 -11 6 -17 15 -14 21 8 11 16 11 34 0z m-919 -41 c47 -24 80 -68
80 -107 l0 -28 -16 33 c-9 17 -20 32 -25 32 -13 0 -11 -12 6 -34 17 -23 19
-64 5 -86 -9 -13 -10 -13 -10 1 0 8 -11 26 -25 39 -25 23 -25 23 -40 4 -17
-22 -19 -40 -5 -49 13 -8 13 -52 1 -60 -5 -3 -21 5 -36 18 -35 29 -27 61 32
133 24 30 40 54 36 54 -12 0 -63 49 -63 60 0 15 17 12 60 -10z m910 -34 c-6
-8 -10 -35 -9 -60 4 -60 -7 -68 -21 -15 -13 48 -1 89 26 89 13 0 14 -3 4 -14z
m-890 -160 c4 -12 3 -29 -3 -41 -10 -19 -11 -19 -18 5 -17 62 -1 92 21 36z
m-395 -5 c3 -5 1 -12 -5 -16 -13 -8 -13 -25 1 -25 12 0 88 -80 89 -92 1 -17
-48 -6 -67 15 -30 32 -63 89 -63 110 0 18 34 24 45 8z m261 -16 c24 -37 15
-61 -21 -56 -17 1 -39 8 -50 14 -17 9 -17 12 -4 15 9 1 22 14 29 27 17 31 25
31 46 0z m943 -26 c-22 -14 -33 -10 -19 6 7 8 17 12 22 9 6 -4 5 -10 -3 -15z
m56 -19 c3 -5 0 -10 -9 -10 -8 0 -21 -3 -30 -6 -9 -3 -16 -1 -16 4 0 9 15 16
42 21 4 0 10 -3 13 -9z m56 -10 c46 -25 -5 -90 -70 -90 -36 0 -71 19 -71 39 0
17 26 31 57 31 21 0 36 6 39 15 7 18 18 19 45 5z m-991 -24 c0 -25 -77 -84
-133 -102 -47 -14 -60 -15 -86 -4 -43 18 -39 28 17 35 133 16 141 19 156 68 6
20 46 23 46 3z m70 -1 c0 -18 -21 -28 -46 -23 -17 3 -17 4 0 21 22 21 46 22
46 2z m767 -7 c-3 -8 -6 -5 -6 6 -1 11 2 17 5 13 3 -3 4 -12 1 -19z m-516 -3
c24 -9 50 -18 58 -20 22 -8 -7 -35 -39 -35 -15 0 -42 -7 -59 -16 -31 -15 -41
-28 -84 -106 -18 -31 -19 -32 -33 -14 -13 18 -17 16 -74 -42 -33 -34 -63 -62
-66 -62 -11 0 6 81 26 123 25 51 25 55 -1 31 l-22 -19 22 42 c26 51 78 82 154
89 75 8 82 11 67 29 -16 19 -4 19 51 0z m409 1 c17 -2 32 -5 34 -7 6 -6 -18
-99 -25 -99 -4 0 -12 7 -19 15 -7 8 -18 15 -26 15 -17 0 -33 30 -27 50 3 8 6
21 9 28 2 7 8 11 13 8 5 -4 23 -8 41 -10z m75 -26 c-10 -11 -20 -18 -23 -15
-7 6 18 35 31 35 5 0 2 -9 -8 -20z m21 -25 c-9 -14 -24 -25 -32 -25 -12 0 -9
8 12 28 35 33 43 32 20 -3z m-859 -34 c-24 -25 -50 -61 -57 -78 -15 -41 -24
-41 -40 -3 -7 17 -16 30 -21 30 -24 0 -5 18 31 30 22 7 57 28 78 46 54 47 61
29 9 -25z m966 15 c52 1 55 -1 30 -28 -11 -12 -30 -18 -62 -18 -58 0 -75 11
-66 39 5 17 11 20 28 14 12 -4 43 -8 70 -7z m-920 -27 c3 -11 -1 -37 -10 -57
-18 -43 -14 -193 6 -231 7 -13 14 -36 16 -51 2 -16 11 -39 19 -52 8 -13 18
-40 21 -60 6 -30 4 -38 -8 -38 -23 0 -87 29 -87 40 0 6 -13 10 -30 10 -18 0
-30 5 -30 13 0 8 -10 18 -22 24 -18 8 -26 5 -45 -16 -12 -14 -23 -23 -23 -19
0 9 57 65 98 96 17 12 36 38 42 58 10 31 9 41 -6 72 -11 21 -25 45 -33 54 -19
24 1 94 41 142 34 41 44 44 51 15z m-288 -11 c12 -13 34 -34 49 -47 14 -13 29
-35 33 -49 8 -32 -8 -94 -25 -100 -11 -3 -12 0 -3 16 21 39 11 46 -16 13 -34
-39 -91 -56 -110 -32 -11 14 -12 13 -13 -7 0 -12 7 -33 15 -46 17 -26 10 -86
-10 -86 -65 0 -98 32 -51 50 25 9 42 28 33 37 -3 3 -21 -7 -40 -21 -19 -14
-39 -26 -46 -26 -17 0 -32 46 -33 104 -1 61 7 92 28 100 23 9 64 -4 64 -19 0
-29 21 -68 31 -58 6 6 4 21 -5 45 -12 29 -13 42 -2 78 20 69 61 88 101 48z
m1065 -9 c0 -5 -4 -9 -10 -9 -5 0 -10 7 -10 16 0 8 5 12 10 9 6 -3 10 -10 10
-16z m-942 -52 c6 -28 -14 -19 -44 20 l-28 37 34 -20 c19 -11 36 -28 38 -37z
m1035 35 c43 -5 49 -19 12 -28 -31 -8 -85 13 -85 33 0 11 5 13 18 7 9 -4 34
-9 55 -12z m-1015 -94 c20 -20 14 -48 -14 -58 -14 -6 -27 -10 -28 -10 -2 0 2
18 7 40 12 43 16 47 35 28z m52 -48 c0 -5 -4 -10 -10 -10 -5 0 -10 5 -10 10 0
6 5 10 10 10 6 0 10 -4 10 -10z m-477 -25 c-3 -9 -8 -14 -10 -11 -3 3 -2 9 2
15 9 16 15 13 8 -4z m475 -17 c17 -17 15 -78 -5 -100 -20 -22 -33 -23 -33 -3
0 9 -7 30 -16 47 -12 23 -19 27 -27 19 -9 -9 -8 -16 1 -31 15 -24 16 -70 1
-70 -5 0 -7 4 -4 10 3 5 1 20 -6 32 -39 75 -72 68 -57 -12 7 -39 5 -56 -7 -80
-18 -35 -28 -37 -55 -10 -20 20 -27 80 -14 114 17 44 164 110 164 74 0 -8 6
-6 17 5 20 20 25 21 41 5z m-417 -43 c14 -55 53 -91 116 -108 51 -13 65 -33
38 -53 -26 -19 -52 -17 -73 4 -9 9 -24 16 -33 14 -13 -2 -15 3 -12 25 l4 28
-17 -22 c-13 -18 -20 -20 -35 -13 -33 18 -55 152 -26 163 23 10 27 7 38 -38z
m201 13 c-9 -9 -15 -9 -24 0 -9 9 -7 12 12 12 19 0 21 -3 12 -12z m98 -162
c-6 -16 -13 -27 -16 -24 -2 3 0 17 6 32 5 15 11 42 12 59 1 32 1 32 5 -4 2
-19 -1 -48 -7 -63z m-337 30 c16 -24 127 -86 156 -86 26 -1 -18 -23 -54 -27
-53 -7 -65 -5 -92 17 -16 12 -29 17 -33 11 -8 -14 -40 24 -40 47 0 20 27 62
39 62 5 0 16 -11 24 -24z m360 -81 c-3 -9 -8 -14 -10 -11 -3 3 -2 9 2 15 9 16
15 13 8 -4z m1596 -78 c-84 -75 -212 -158 -225 -145 -3 4 0 25 7 47 10 34 16
40 32 35 25 -8 99 20 162 62 63 41 69 42 24 1z"/>
<path d="M2513 2738 c1 -10 9 -18 19 -18 10 0 16 7 15 19 -1 12 -8 19 -18 18
-10 -1 -17 -9 -16 -19z"/>
<path d="M1018 3805 c-25 -18 -89 -77 -142 -129 -53 -53 -101 -96 -106 -96 -6
0 -10 -7 -10 -16 0 -15 12 -16 111 -11 142 7 172 27 41 27 -51 0 -92 3 -92 7
0 4 57 62 128 130 70 67 125 122 122 122 -3 0 -26 -15 -52 -34z"/>
<path d="M1381 3564 c0 -11 3 -14 6 -6 3 7 2 16 -1 19 -3 4 -6 -2 -5 -13z"/>
<path d="M3091 3438 c0 -9 -4 -25 -7 -35 -5 -14 -4 -15 5 -7 7 7 11 22 8 35
-2 13 -5 16 -6 7z"/>
<path d="M3225 2630 c-3 -5 -1 -10 4 -10 6 0 11 -8 11 -17 0 -13 3 -14 11 -6
13 13 5 43 -10 43 -5 0 -13 -4 -16 -10z"/>
<path d="M3234 2555 c-3 -14 -4 -28 -1 -31 10 -10 27 7 27 26 0 30 -19 33 -26
5z"/>
<path d="M3981 2479 c15 -15 24 -18 32 -10 7 7 2 13 -17 21 -38 14 -39 13 -15
-11z"/>
<path d="M3225 2459 c-10 -15 3 -25 16 -12 7 7 7 13 1 17 -6 3 -14 1 -17 -5z"/>
<path d="M3871 2244 c-20 -25 -20 -44 -1 -44 9 0 33 61 26 67 -2 2 -13 -8 -25
-23z"/>
<path d="M3070 2005 c0 -13 -8 -29 -17 -34 -16 -9 -16 -12 -3 -21 8 -5 32 -9
53 -8 28 1 37 5 37 19 0 11 -5 16 -14 13 -9 -3 -15 5 -19 25 -8 38 -37 43 -37
6z"/>
<path d="M1160 1914 c0 -15 96 -104 112 -104 12 0 17 -4 12 -12 -5 -8 -2 -9
10 -5 10 4 15 3 11 -3 -7 -12 32 -33 50 -26 7 2 16 -2 19 -10 4 -10 24 -14 76
-14 39 0 69 -4 66 -9 -7 -10 21 -8 49 4 51 23 43 30 -59 57 -113 30 -252 78
-308 108 -21 10 -38 17 -38 14z m415 -162 c-3 -3 -11 0 -18 7 -9 10 -8 11 6 5
10 -3 15 -9 12 -12z"/>
<path d="M1159 1687 c-30 -15 -76 -106 -118 -235 -45 -139 -40 -172 24 -172
l30 1 -27 15 c-36 19 -37 56 -4 133 13 31 36 90 52 131 16 41 41 87 55 102 31
31 25 43 -12 25z"/>
<path d="M3998 1684 c12 -8 19 -21 16 -27 -5 -9 -3 -9 6 0 11 10 11 15 0 28
-7 8 -20 15 -28 15 -12 0 -11 -4 6 -16z"/>
<path d="M2094 1678 c3 -7 9 -21 12 -30 11 -30 34 -21 34 12 0 26 -4 30 -26
30 -17 0 -24 -4 -20 -12z"/>
<path d="M1655 1628 c-22 -46 -23 -53 -9 -56 25 -6 46 22 51 67 7 58 -13 53
-42 -11z"/>
<path d="M1255 1590 c-7 -12 114 -12 160 0 21 5 2 8 -62 9 -52 0 -95 -3 -98
-9z"/>
<path d="M3845 1539 c-57 -43 -62 -49 -39 -49 10 0 34 18 52 40 18 22 32 40
30 39 -2 0 -21 -14 -43 -30z"/>
<path d="M3871 1474 c0 -11 3 -14 6 -6 3 7 2 16 -1 19 -3 4 -6 -2 -5 -13z"/>
<path d="M3885 1390 c4 -76 12 -100 31 -100 19 0 18 15 -3 47 -10 14 -21 47
-25 72 -6 38 -6 34 -3 -19z"/>
<path d="M1727 1338 c-19 -46 -15 -62 8 -32 12 16 21 74 12 74 -2 0 -11 -19
-20 -42z"/>
<path d="M2110 1318 c-12 -22 -12 -22 6 -6 10 10 15 20 12 24 -4 3 -12 -5 -18
-18z"/>
</g>
</svg>
